<svg xmlns="http://www.w3.org/2000/svg" viewBox="0 0 48 48" fill="none">
  <rect width="48" height="48" rx="10" fill="#ffffff"/>
  <g stroke="#000000" stroke-width="2.4" stroke-linecap="round" stroke-linejoin="round" fill="none">
    <path d="M24 7.5c9.4-.4 16.9 7.4 16.6 16.9C40.3 33.5 33 40.7 23.6 40.3 14.4 39.9 7.2 32.3 7.5 23 7.9 14 15 7.8 24 7.5Z"/>
    <path d="M22 6.2c1.3-.7 2.7-.7 4 0"/>
    <path d="M24 7.4V5.2"/>
    <path d="M24 24 23.4 14.5"/>
    <path d="M24 24 31.5 27.2"/>
    <path d="M24 10.8v2"/>
    <path d="M37.2 24h-2"/>
    <path d="M24 37.2v-2"/>
    <path d="M10.8 24h-2"/>
  </g>
  <circle cx="24" cy="24" r="1.5" fill="#000000"/>
</svg>
